<svg xmlns="http://www.w3.org/2000/svg" width="64" height="64" viewBox="0 0 64 64">
<g fill="none" stroke="#F4F7F8" stroke-width="3.2" stroke-linecap="round" stroke-linejoin="round">
<circle cx="16" cy="20" r="3" stroke="#F4F7F8"/><circle cx="14" cy="32" r="3" stroke="#F4F7F8"/><circle cx="17" cy="44" r="3" stroke="#F4F7F8"/>
<circle cx="48" cy="20" r="3" stroke="#F4F7F8"/><circle cx="50" cy="32" r="3" stroke="#F4F7F8"/><circle cx="47" cy="44" r="3" stroke="#F4F7F8"/>
<circle cx="32" cy="32" r="7" stroke="#18C6C3"/>
<path d="M22 20 L27 26 M42 20 L37 26 M21 43 L27 37 M43 43 L37 37" stroke="#18C6C3"/>
<path d="M25 25 L27 26 L27 23 M39 25 L37 26 L37 23 M25 39 L27 37 L24 37 M39 39 L37 37 L40 37" stroke="#18C6C3" stroke-width="2.2"/></g></svg>